<svg width="54" height="55" viewBox="0 0 54 55" fill="none" xmlns="http://www.w3.org/2000/svg">
<path d="M48.333 54.6667H5.66634C2.73301 54.6667 0.333008 52.2667 0.333008 49.3333V21.4667C0.333008 19.7333 1.13301 18.1333 2.59967 17.0667L26.9997 0L51.3997 17.0667C52.8663 18 53.6663 19.7333 53.6663 21.4667V49.3333C53.6663 52.2667 51.2663 54.6667 48.333 54.6667Z" fill="url(#paint0_linear)"/>
<path d="M11 14.6666H43V44H11V14.6666Z" fill="white"/>
<path d="M48.333 54.6666H5.66634C2.73301 54.6666 0.333008 52.2666 0.333008 49.3333V22.6666L26.9997 40L53.6663 22.6666V49.3333C53.6663 52.2666 51.2663 54.6666 48.333 54.6666Z" fill="url(#paint1_linear)"/>
<path d="M24.333 18.6666H29.6663V34.6666H24.333V18.6666Z" fill="url(#paint2_linear)"/>
<path d="M19 24H35V29.3333H19V24Z" fill="url(#paint3_linear)"/>
<defs>
<linearGradient id="paint0_linear" x1="12.0502" y1="49.2828" x2="45.8188" y2="5.35612" gradientUnits="userSpaceOnUse">
<stop stop-color="#3040C4"/>
<stop offset="1" stop-color="#7380F3"/>
</linearGradient>
<linearGradient id="paint1_linear" x1="12.0502" y1="51.5151" x2="27.3592" y2="17.4951" gradientUnits="userSpaceOnUse">
<stop stop-color="#3040C4"/>
<stop offset="1" stop-color="#7380F3"/>
</linearGradient>
<linearGradient id="paint2_linear" x1="25.5047" y1="33.0909" x2="33.0961" y2="29.7169" gradientUnits="userSpaceOnUse">
<stop stop-color="#3040C4"/>
<stop offset="1" stop-color="#7380F3"/>
</linearGradient>
<linearGradient id="paint3_linear" x1="22.5152" y1="28.8081" x2="24.1194" y2="22.391" gradientUnits="userSpaceOnUse">
<stop stop-color="#3040C4"/>
<stop offset="1" stop-color="#7380F3"/>
</linearGradient>
</defs>
</svg>
