<svg width="65" height="55" viewBox="0 0 65 55" fill="none" xmlns="http://www.w3.org/2000/svg">
<path d="M3.60352 19.8958H61.3952V48.7916H3.60352V19.8958Z" fill="#CFD8DC"/>
<path d="M3.60352 48.7917H61.3952V54.8751H3.60352V48.7917Z" fill="#B0BEC5"/>
<path d="M37.0625 27.5H55.3125V54.875H37.0625V27.5Z" fill="url(#paint0_linear)"/>
<path d="M9.6875 27.5H30.9792V44.2292H9.6875V27.5Z" fill="#E3F2FD"/>
<path d="M11.209 29.0208H29.459V42.7082H11.209V29.0208Z" fill="#3040C4"/>
<path d="M51.5104 41.948C51.0542 41.948 50.75 42.2522 50.75 42.7084V45.7501C50.75 46.2063 51.0542 46.5105 51.5104 46.5105C51.9667 46.5105 52.2708 46.2063 52.2708 45.7501V42.7084C52.2708 42.2522 51.9667 41.948 51.5104 41.948Z" fill="url(#paint1_linear)"/>
<path d="M32.5 24.4582C35.0198 24.4582 37.0625 22.4155 37.0625 19.8957C37.0625 17.376 35.0198 15.3333 32.5 15.3333C29.9802 15.3333 27.9375 17.376 27.9375 19.8957C27.9375 22.4155 29.9802 24.4582 32.5 24.4582Z" fill="url(#paint2_linear)"/>
<path d="M50.75 24.4582C53.2698 24.4582 55.3125 22.4155 55.3125 19.8957C55.3125 17.376 53.2698 15.3333 50.75 15.3333C48.2302 15.3333 46.1875 17.376 46.1875 19.8957C46.1875 22.4155 48.2302 24.4582 50.75 24.4582Z" fill="url(#paint3_linear)"/>
<path d="M14.25 24.4582C16.7698 24.4582 18.8125 22.4155 18.8125 19.8957C18.8125 17.376 16.7698 15.3333 14.25 15.3333C11.7302 15.3333 9.6875 17.376 9.6875 19.8957C9.6875 22.4155 11.7302 24.4582 14.25 24.4582Z" fill="url(#paint4_linear)"/>
<path d="M56.8333 0.125H8.16667C6.49375 0.125 5.125 1.49375 5.125 3.16667V7.72916H59.875V3.16667C59.875 1.49375 58.5063 0.125 56.8333 0.125Z" fill="url(#paint5_linear)"/>
<path d="M27.9375 7.72925H37.0625V19.8959H27.9375V7.72925Z" fill="url(#paint6_linear)"/>
<path d="M52.2702 7.72925H44.666L46.1868 19.8959H55.3118L52.2702 7.72925Z" fill="url(#paint7_linear)"/>
<path d="M12.7292 7.72925H20.3333L18.8125 19.8959H9.6875L12.7292 7.72925Z" fill="url(#paint8_linear)"/>
<path d="M41.625 24.4582C44.1448 24.4582 46.1875 22.4155 46.1875 19.8957C46.1875 17.376 44.1448 15.3333 41.625 15.3333C39.1052 15.3333 37.0625 17.376 37.0625 19.8957C37.0625 22.4155 39.1052 24.4582 41.625 24.4582Z" fill="url(#paint9_linear)"/>
<path d="M64.4375 19.8957C64.4375 22.4812 62.4604 24.4582 59.875 24.4582C57.2896 24.4582 55.3125 22.4812 55.3125 19.8957C55.3125 17.3103 57.2896 15.3333 59.875 15.3333L64.4375 19.8957Z" fill="url(#paint10_linear)"/>
<path d="M23.375 24.4582C25.8948 24.4582 27.9375 22.4155 27.9375 19.8957C27.9375 17.376 25.8948 15.3333 23.375 15.3333C20.8552 15.3333 18.8125 17.376 18.8125 19.8957C18.8125 22.4155 20.8552 24.4582 23.375 24.4582Z" fill="url(#paint11_linear)"/>
<path d="M0.5625 19.8957C0.5625 22.4812 2.53958 24.4582 5.125 24.4582C7.71042 24.4582 9.6875 22.4812 9.6875 19.8957C9.6875 17.3103 7.71042 15.3333 5.125 15.3333L0.5625 19.8957Z" fill="url(#paint12_linear)"/>
<path d="M44.6667 7.72925H37.0625V19.8959H46.1875L44.6667 7.72925Z" fill="url(#paint13_linear)"/>
<path d="M59.8757 7.72925H52.2715L55.3132 19.8959H64.4382L59.8757 7.72925Z" fill="url(#paint14_linear)"/>
<path d="M20.3333 7.72925H27.9375V19.8959H18.8125L20.3333 7.72925Z" fill="url(#paint15_linear)"/>
<path d="M5.125 7.72925H12.7292L9.6875 19.8959H0.5625L5.125 7.72925Z" fill="url(#paint16_linear)"/>
<defs>
<linearGradient id="paint0_linear" x1="41.072" y1="52.179" x2="58.4495" y2="36.7323" gradientUnits="userSpaceOnUse">
<stop stop-color="#3040C4"/>
<stop offset="1" stop-color="#7380F3"/>
</linearGradient>
<linearGradient id="paint1_linear" x1="51.0841" y1="46.0612" x2="53.2488" y2="45.0991" gradientUnits="userSpaceOnUse">
<stop stop-color="#3040C4"/>
<stop offset="1" stop-color="#7380F3"/>
</linearGradient>
<linearGradient id="paint2_linear" x1="29.9422" y1="23.5596" x2="35.5417" y2="16.0937" gradientUnits="userSpaceOnUse">
<stop stop-color="#3040C4"/>
<stop offset="1" stop-color="#7380F3"/>
</linearGradient>
<linearGradient id="paint3_linear" x1="48.1922" y1="23.5596" x2="53.7917" y2="16.0937" gradientUnits="userSpaceOnUse">
<stop stop-color="#3040C4"/>
<stop offset="1" stop-color="#7380F3"/>
</linearGradient>
<linearGradient id="paint4_linear" x1="11.6922" y1="23.5596" x2="17.2917" y2="16.0937" gradientUnits="userSpaceOnUse">
<stop stop-color="#3040C4"/>
<stop offset="1" stop-color="#7380F3"/>
</linearGradient>
<linearGradient id="paint5_linear" x1="17.1534" y1="6.98027" x2="18.1552" y2="-2.63661" gradientUnits="userSpaceOnUse">
<stop stop-color="#3040C4"/>
<stop offset="1" stop-color="#7380F3"/>
</linearGradient>
<linearGradient id="paint6_linear" x1="29.9422" y1="18.6977" x2="37.7192" y2="10.9207" gradientUnits="userSpaceOnUse">
<stop stop-color="#3040C4"/>
<stop offset="1" stop-color="#7380F3"/>
</linearGradient>
<linearGradient id="paint7_linear" x1="47.0049" y1="18.6977" x2="54.6904" y2="9.73128" gradientUnits="userSpaceOnUse">
<stop stop-color="#3040C4"/>
<stop offset="1" stop-color="#7380F3"/>
</linearGradient>
<linearGradient id="paint8_linear" x1="12.0264" y1="18.6977" x2="19.7119" y2="9.73127" gradientUnits="userSpaceOnUse">
<stop stop-color="#3040C4"/>
<stop offset="1" stop-color="#7380F3"/>
</linearGradient>
<linearGradient id="paint9_linear" x1="39.0672" y1="23.5596" x2="44.6667" y2="16.0937" gradientUnits="userSpaceOnUse">
<stop stop-color="#3040C4"/>
<stop offset="1" stop-color="#7380F3"/>
</linearGradient>
<linearGradient id="paint10_linear" x1="57.3172" y1="23.5596" x2="62.9167" y2="16.0937" gradientUnits="userSpaceOnUse">
<stop stop-color="#3040C4"/>
<stop offset="1" stop-color="#7380F3"/>
</linearGradient>
<linearGradient id="paint11_linear" x1="20.8172" y1="23.5596" x2="26.4167" y2="16.0937" gradientUnits="userSpaceOnUse">
<stop stop-color="#3040C4"/>
<stop offset="1" stop-color="#7380F3"/>
</linearGradient>
<linearGradient id="paint12_linear" x1="2.56723" y1="23.5596" x2="8.16666" y2="16.0937" gradientUnits="userSpaceOnUse">
<stop stop-color="#3040C4"/>
<stop offset="1" stop-color="#7380F3"/>
</linearGradient>
<linearGradient id="paint13_linear" x1="39.0672" y1="18.6977" x2="46.8442" y2="10.9207" gradientUnits="userSpaceOnUse">
<stop stop-color="#3040C4"/>
<stop offset="1" stop-color="#7380F3"/>
</linearGradient>
<linearGradient id="paint14_linear" x1="54.9445" y1="18.6977" x2="62.4104" y2="8.74312" gradientUnits="userSpaceOnUse">
<stop stop-color="#3040C4"/>
<stop offset="1" stop-color="#7380F3"/>
</linearGradient>
<linearGradient id="paint15_linear" x1="20.8172" y1="18.6977" x2="28.5942" y2="10.9207" gradientUnits="userSpaceOnUse">
<stop stop-color="#3040C4"/>
<stop offset="1" stop-color="#7380F3"/>
</linearGradient>
<linearGradient id="paint16_linear" x1="3.23548" y1="18.6977" x2="10.7014" y2="8.74314" gradientUnits="userSpaceOnUse">
<stop stop-color="#3040C4"/>
<stop offset="1" stop-color="#7380F3"/>
</linearGradient>
</defs>
</svg>
