<svg width="45" height="55" viewBox="0 0 45 55" fill="none" xmlns="http://www.w3.org/2000/svg">
<path d="M22.5003 45.1041L15.7295 36.9791V28.8541H29.2712V36.9791L22.5003 45.1041Z" fill="#F4F6FF"/>
<path d="M34.6878 23.4375C36.1836 23.4375 37.3962 22.225 37.3962 20.7292C37.3962 19.2334 36.1836 18.0209 34.6878 18.0209C33.1921 18.0209 31.9795 19.2334 31.9795 20.7292C31.9795 22.225 33.1921 23.4375 34.6878 23.4375Z" fill="#D5D5D5"/>
<path d="M10.3128 23.4375C11.8086 23.4375 13.0212 22.225 13.0212 20.7292C13.0212 19.2334 11.8086 18.0209 10.3128 18.0209C8.81705 18.0209 7.60449 19.2334 7.60449 20.7292C7.60449 22.225 8.81705 23.4375 10.3128 23.4375Z" fill="#D5D5D5"/>
<path d="M34.6875 12.6042C34.6875 2.31254 10.3125 5.83337 10.3125 12.6042V22.0834C10.3125 28.8542 15.7292 34.2709 22.5 34.2709C29.2708 34.2709 34.6875 28.8542 34.6875 22.0834V12.6042Z" fill="#D5D5D5"/>
<path d="M22.4997 0.416626C14.2393 0.416626 8.95801 7.05204 8.95801 15.3125V18.427L11.6663 20.7291V13.9583L27.9163 8.54163L33.333 13.9583V20.7291L36.0413 18.427V15.3125C36.0413 9.89579 34.6872 4.47913 27.9163 3.12496L26.5622 0.416626H22.4997Z" fill="url(#paint0_linear)"/>
<path d="M27.9167 22.0833C28.6646 22.0833 29.2708 21.4771 29.2708 20.7292C29.2708 19.9813 28.6646 19.375 27.9167 19.375C27.1688 19.375 26.5625 19.9813 26.5625 20.7292C26.5625 21.4771 27.1688 22.0833 27.9167 22.0833Z" fill="url(#paint1_linear)"/>
<path d="M17.0837 22.0833C17.8315 22.0833 18.4378 21.4771 18.4378 20.7292C18.4378 19.9813 17.8315 19.375 17.0837 19.375C16.3358 19.375 15.7295 19.9813 15.7295 20.7292C15.7295 21.4771 16.3358 22.0833 17.0837 22.0833Z" fill="url(#paint2_linear)"/>
<path d="M22.5003 53.2291L15.7295 36.9791L22.5003 38.3333L29.2712 36.9791L22.5003 53.2291Z" fill="white"/>
<path d="M21.1462 42.3959L20.1982 48.4896L22.5003 53.9063L24.8024 48.4896L23.8545 42.3959L25.2087 41.0417L22.5003 38.3334L19.792 41.0417L21.1462 42.3959Z" fill="url(#paint3_linear)"/>
<path d="M29.2705 36.9791L22.4997 53.2291L15.7288 36.9791C15.7288 36.9791 0.833008 39.6875 0.833008 54.5833H44.1663C44.1663 39.6875 29.2705 36.9791 29.2705 36.9791Z" fill="url(#paint4_linear)"/>
<defs>
<linearGradient id="paint0_linear" x1="14.9081" y1="18.7287" x2="26.0041" y2="-0.997542" gradientUnits="userSpaceOnUse">
<stop stop-color="#3040C4"/>
<stop offset="1" stop-color="#7380F3"/>
</linearGradient>
<linearGradient id="paint1_linear" x1="27.1575" y1="21.8166" x2="28.8194" y2="19.6007" gradientUnits="userSpaceOnUse">
<stop stop-color="#3040C4"/>
<stop offset="1" stop-color="#7380F3"/>
</linearGradient>
<linearGradient id="paint2_linear" x1="16.3245" y1="21.8166" x2="17.9864" y2="19.6007" gradientUnits="userSpaceOnUse">
<stop stop-color="#3040C4"/>
<stop offset="1" stop-color="#7380F3"/>
</linearGradient>
<linearGradient id="paint3_linear" x1="20.982" y1="52.3726" x2="28.5806" y2="48.8486" gradientUnits="userSpaceOnUse">
<stop stop-color="#3040C4"/>
<stop offset="1" stop-color="#7380F3"/>
</linearGradient>
<linearGradient id="paint4_linear" x1="10.3532" y1="52.8495" x2="16.6278" y2="32.256" gradientUnits="userSpaceOnUse">
<stop stop-color="#3040C4"/>
<stop offset="1" stop-color="#7380F3"/>
</linearGradient>
</defs>
</svg>
